<svg width="1600" height="900" viewBox="0 0 1600 900" fill="none" xmlns="http://www.w3.org/2000/svg">
  <rect width="1600" height="900" rx="28" fill="#0F172A"/>
  <rect x="26" y="26" width="1548" height="848" rx="24" fill="#1F2937"/>
  <text x="52" y="84" fill="#F8FAFC" font-family="Inter, Arial, sans-serif" font-size="28" font-weight="700">fortress-dashboard</text>
  <text x="412" y="84" fill="#CBD5E1" font-family="Inter, Arial, sans-serif" font-size="20">25% CPU</text>
  <text x="548" y="84" fill="#CBD5E1" font-family="Inter, Arial, sans-serif" font-size="20">836 MiB free</text>
  <text x="728" y="84" fill="#CBD5E1" font-family="Inter, Arial, sans-serif" font-size="20">22.4 GB free</text>
  <text x="1224" y="84" fill="#CBD5E1" font-family="Inter, Arial, sans-serif" font-size="20">Vienna, 18 C</text>
  <line x1="48" y1="104" x2="1550" y2="104" stroke="#475569" stroke-width="2"/>

  <text x="52" y="172" fill="#F8FAFC" font-family="Inter, Arial, sans-serif" font-size="30" font-weight="700">Infrastructure</text>
  <rect x="52" y="192" width="360" height="82" rx="16" fill="#273244"/>
  <rect x="430" y="192" width="360" height="82" rx="16" fill="#273244"/>
  <rect x="808" y="192" width="360" height="82" rx="16" fill="#273244"/>
  <rect x="1186" y="192" width="364" height="120" rx="16" fill="#273244"/>
  <text x="92" y="242" fill="#F8FAFC" font-family="Inter, Arial, sans-serif" font-size="22" font-weight="600">Pi-hole</text>
  <text x="470" y="242" fill="#F8FAFC" font-family="Inter, Arial, sans-serif" font-size="22" font-weight="600">Uptime Kuma</text>
  <text x="848" y="242" fill="#F8FAFC" font-family="Inter, Arial, sans-serif" font-size="22" font-weight="600">CrowdSec</text>
  <text x="1226" y="232" fill="#F8FAFC" font-family="Inter, Arial, sans-serif" font-size="22" font-weight="600">Netdata</text>
  <text x="1266" y="282" fill="#93C5FD" font-family="Inter, Arial, sans-serif" font-size="18">0 warnings</text>
  <text x="1396" y="282" fill="#93C5FD" font-family="Inter, Arial, sans-serif" font-size="18">0 criticals</text>

  <text x="52" y="398" fill="#F8FAFC" font-family="Inter, Arial, sans-serif" font-size="30" font-weight="700">Management</text>
  <rect x="52" y="420" width="360" height="82" rx="16" fill="#273244"/>
  <rect x="430" y="420" width="360" height="82" rx="16" fill="#273244"/>
  <rect x="808" y="420" width="360" height="82" rx="16" fill="#273244"/>
  <rect x="1186" y="420" width="364" height="82" rx="16" fill="#273244"/>
  <text x="92" y="470" fill="#F8FAFC" font-family="Inter, Arial, sans-serif" font-size="22" font-weight="600">Nginx Proxy</text>
  <text x="470" y="470" fill="#F8FAFC" font-family="Inter, Arial, sans-serif" font-size="22" font-weight="600">Portainer</text>
  <text x="848" y="470" fill="#F8FAFC" font-family="Inter, Arial, sans-serif" font-size="22" font-weight="600">Dozzle</text>
  <text x="1226" y="470" fill="#F8FAFC" font-family="Inter, Arial, sans-serif" font-size="22" font-weight="600">Watchtower</text>

  <text x="52" y="574" fill="#F8FAFC" font-family="Inter, Arial, sans-serif" font-size="30" font-weight="700">Virtualization</text>
  <rect x="52" y="596" width="360" height="96" rx="16" fill="#273244"/>
  <text x="92" y="644" fill="#F8FAFC" font-family="Inter, Arial, sans-serif" font-size="22" font-weight="600">Proxmox</text>
  <text x="92" y="674" fill="#94A3B8" font-family="Inter, Arial, sans-serif" font-size="18">Hardware host</text>

  <text x="52" y="760" fill="#F8FAFC" font-family="Inter, Arial, sans-serif" font-size="30" font-weight="700">Network</text>
  <rect x="52" y="782" width="360" height="82" rx="16" fill="#273244"/>
  <rect x="430" y="782" width="360" height="82" rx="16" fill="#273244"/>
  <rect x="808" y="782" width="360" height="82" rx="16" fill="#273244"/>
  <text x="92" y="832" fill="#F8FAFC" font-family="Inter, Arial, sans-serif" font-size="22" font-weight="600">Gateway</text>
  <text x="470" y="832" fill="#F8FAFC" font-family="Inter, Arial, sans-serif" font-size="22" font-weight="600">Core Router</text>
  <text x="848" y="832" fill="#F8FAFC" font-family="Inter, Arial, sans-serif" font-size="22" font-weight="600">Tailscale</text>
</svg>
